M48
; DRILL file {KiCad (5.1.4)-1} date 1/5/2021 10:26:23 PM
; FORMAT={-:-/ absolute / metric / decimal}
; #@! TF.CreationDate,2021-01-05T22:26:23-08:00
; #@! TF.GenerationSoftware,Kicad,Pcbnew,(5.1.4)-1
FMAT,2
METRIC
T1C0.400
T2C0.600
T3C1.000
T4C1.470
T5C0.650
T6C1.750
T7C3.048
T8C3.988
%
G90
G05
T1
X31.433Y-10.931
X31.6Y-72.9
X31.8Y-23.1
X31.887Y-46.913
X32.0Y-85.0
X32.5Y-19.75
X32.612Y-30.65
X34.05Y-69.8
X34.7Y-19.8
X35.35Y-23.1
X35.38Y-10.931
X35.75Y-72.9
X35.95Y-46.95
X36.206Y-78.844
X37.288Y-65.962
X37.3Y-84.05
X37.35Y-25.9
X37.7Y-103.262
X37.7Y-123.15
X37.812Y-70.587
X38.007Y-54.315
X38.65Y-50.7
X38.95Y-21.4
X40.05Y-67.2
X41.362Y-70.587
X42.438Y-85.013
X42.45Y-84.05
X42.6Y-80.2
X42.95Y-57.35
X43.65Y-78.95
X43.9Y-65.95
X45.15Y-70.5
X45.312Y-73.562
X45.85Y-56.2
X47.2Y-53.8
X48.9Y-75.3
X49.25Y-72.6
X52.567Y-68.771
X54.587Y-65.962
X55.15Y-54.7
X56.95Y-48.8
X58.287Y-65.962
X62.425Y-49.708
X71.596Y-68.321
X90.646Y-66.763
X101.71Y-49.708
X137.5Y-90.188
X156.1Y-89.738
X174.579Y-89.288
X193.404Y-88.946
X211.829Y-88.388
X230.454Y-87.938
X247.809Y-87.488
X281.6Y-87.038
X285.95Y-86.588
X291.525Y-44.925
X295.65Y-47.75
X296.8Y-33.25
X296.84Y-45.59
X296.84Y-81.885
X297.7Y-47.712
X298.7Y-47.712
T3
X279.902Y-16.034
X279.902Y-18.574
X279.902Y-21.114
X279.902Y-23.654
T4
X122.396Y-17.304
X128.746Y-14.764
X303.371Y-41.116
X309.721Y-38.576
X222.409Y-79.216
X228.759Y-76.676
X17.621Y-17.304
X23.971Y-14.764
X93.821Y-41.116
X100.171Y-38.576
X60.484Y-98.266
X66.834Y-95.726
X139.065Y-117.316
X145.415Y-114.776
X55.721Y-41.116
X62.071Y-38.576
X184.309Y-79.216
X190.659Y-76.676
X43.815Y-117.316
X50.165Y-114.776
X46.196Y-60.166
X52.546Y-57.626
X165.259Y-79.216
X171.609Y-76.676
X208.121Y-41.116
X214.471Y-38.576
X67.627Y-117.316
X73.977Y-114.776
X141.446Y-60.166
X147.796Y-57.626
X303.371Y-79.216
X309.721Y-76.676
X65.246Y-60.166
X71.596Y-57.626
X193.834Y-98.266
X200.184Y-95.726
X189.071Y-41.116
X195.421Y-38.576
X79.534Y-98.266
X85.884Y-95.726
X274.796Y-41.116
X281.146Y-38.576
X265.271Y-41.116
X271.621Y-38.576
X198.596Y-60.166
X204.946Y-57.626
X79.534Y-17.304
X85.884Y-14.764
X20.002Y-79.216
X26.352Y-76.676
X203.359Y-17.304
X209.709Y-14.764
X50.959Y-79.216
X57.309Y-76.676
X155.734Y-98.266
X162.084Y-95.726
X222.409Y-17.304
X228.759Y-14.764
X246.221Y-117.316
X252.571Y-114.776
X98.584Y-17.304
X104.934Y-14.764
X84.296Y-60.166
X90.646Y-57.626
X70.009Y-79.216
X76.359Y-76.676
X122.396Y-60.166
X128.746Y-57.626
X241.459Y-79.216
X247.809Y-76.676
X265.271Y-117.316
X271.621Y-114.776
X179.546Y-60.166
X185.896Y-57.626
X117.634Y-98.266
X123.984Y-95.726
X231.934Y-98.266
X238.284Y-95.726
X236.696Y-60.166
X243.046Y-57.626
X146.209Y-79.216
X152.559Y-76.676
X36.671Y-41.116
X43.021Y-38.576
X212.884Y-98.266
X219.234Y-95.726
X246.221Y-41.116
X252.571Y-38.576
X272.415Y-79.216
X278.765Y-76.676
X131.921Y-41.116
X138.271Y-38.576
X174.784Y-98.266
X181.134Y-95.726
X112.871Y-41.116
X119.221Y-38.576
X29.527Y-98.266
X35.877Y-95.726
X150.971Y-41.116
X157.321Y-38.576
X258.127Y-98.266
X264.477Y-95.726
X74.771Y-41.116
X81.121Y-38.576
X17.621Y-41.116
X23.971Y-38.576
X303.371Y-117.316
X309.721Y-114.776
X179.546Y-17.304
X185.896Y-14.764
X103.346Y-60.166
X109.696Y-57.626
X212.884Y-117.316
X219.234Y-114.776
X141.446Y-17.304
X147.796Y-14.764
X227.171Y-117.316
X233.521Y-114.776
X41.434Y-17.304
X47.784Y-14.764
X22.384Y-60.166
X28.734Y-57.626
X98.584Y-98.266
X104.934Y-95.726
X284.321Y-117.316
X290.671Y-114.776
X24.765Y-79.216
X31.115Y-76.676
X203.359Y-79.216
X209.709Y-76.676
X20.002Y-117.316
X26.352Y-114.776
X160.496Y-60.166
X166.846Y-57.626
X284.321Y-41.116
X290.671Y-38.576
X303.371Y-60.166
X309.721Y-57.626
X208.121Y-117.316
X214.471Y-114.776
X255.746Y-60.166
X262.096Y-57.626
X127.159Y-79.216
X133.509Y-76.676
X241.459Y-17.304
X247.809Y-14.764
X303.371Y-98.266
X309.721Y-95.726
X227.171Y-41.116
X233.521Y-38.576
X108.109Y-79.216
X114.459Y-76.676
X279.559Y-60.166
X285.909Y-57.626
X241.459Y-117.316
X247.809Y-114.776
X217.646Y-60.166
X223.996Y-57.626
X89.059Y-79.216
X95.409Y-76.676
X170.021Y-41.116
X176.371Y-38.576
X136.684Y-98.266
X143.034Y-95.726
X260.509Y-17.304
X266.859Y-14.764
X284.321Y-98.266
X290.671Y-95.726
X160.496Y-17.304
X166.846Y-14.764
X60.484Y-17.304
X66.834Y-14.764
T5
X30.516Y-10.806
X36.296Y-10.806
T6
X16.351Y-43.656
X26.511Y-43.656
X302.101Y-119.856
X312.261Y-119.856
X178.276Y-19.844
X188.436Y-19.844
X102.076Y-62.706
X112.236Y-62.706
X211.614Y-119.856
X221.774Y-119.856
X140.176Y-19.844
X150.336Y-19.844
X225.901Y-119.856
X236.061Y-119.856
X40.164Y-19.844
X50.324Y-19.844
X21.114Y-62.706
X31.274Y-62.706
X97.314Y-100.806
X107.474Y-100.806
X283.051Y-119.856
X293.211Y-119.856
X23.495Y-81.756
X33.655Y-81.756
X202.089Y-81.756
X212.249Y-81.756
X18.732Y-119.856
X28.892Y-119.856
X159.226Y-62.706
X169.386Y-62.706
X283.051Y-43.656
X293.211Y-43.656
X302.101Y-62.706
X312.261Y-62.706
X206.851Y-119.856
X217.011Y-119.856
X254.476Y-62.706
X264.636Y-62.706
X125.889Y-81.756
X136.049Y-81.756
X240.189Y-19.844
X250.349Y-19.844
X302.101Y-100.806
X312.261Y-100.806
X225.901Y-43.656
X236.061Y-43.656
X106.839Y-81.756
X116.999Y-81.756
X278.289Y-62.706
X288.449Y-62.706
X240.189Y-119.856
X250.349Y-119.856
X216.376Y-62.706
X226.536Y-62.706
X87.789Y-81.756
X97.949Y-81.756
X168.751Y-43.656
X178.911Y-43.656
X135.414Y-100.806
X145.574Y-100.806
X259.239Y-19.844
X269.399Y-19.844
X283.051Y-100.806
X293.211Y-100.806
X159.226Y-19.844
X169.386Y-19.844
X59.214Y-19.844
X69.374Y-19.844
X121.126Y-19.844
X131.286Y-19.844
X302.101Y-43.656
X312.261Y-43.656
X221.139Y-81.756
X231.299Y-81.756
X16.351Y-19.844
X26.511Y-19.844
X92.551Y-43.656
X102.711Y-43.656
X59.214Y-100.806
X69.374Y-100.806
X137.795Y-119.856
X147.955Y-119.856
X54.451Y-43.656
X64.611Y-43.656
X183.039Y-81.756
X193.199Y-81.756
X42.545Y-119.856
X52.705Y-119.856
X44.926Y-62.706
X55.086Y-62.706
X163.989Y-81.756
X174.149Y-81.756
X206.851Y-43.656
X217.011Y-43.656
X66.358Y-119.856
X76.517Y-119.856
X140.176Y-62.706
X150.336Y-62.706
X302.101Y-81.756
X312.261Y-81.756
X63.976Y-62.706
X74.136Y-62.706
X192.564Y-100.806
X202.724Y-100.806
X187.801Y-43.656
X197.961Y-43.656
X78.264Y-100.806
X88.424Y-100.806
X273.526Y-43.656
X283.686Y-43.656
X264.001Y-43.656
X274.161Y-43.656
X197.326Y-62.706
X207.486Y-62.706
X78.264Y-19.844
X88.424Y-19.844
X18.732Y-81.756
X28.892Y-81.756
X202.089Y-19.844
X212.249Y-19.844
X49.689Y-81.756
X59.849Y-81.756
X154.464Y-100.806
X164.624Y-100.806
X221.139Y-19.844
X231.299Y-19.844
X244.951Y-119.856
X255.111Y-119.856
X97.314Y-19.844
X107.474Y-19.844
X83.026Y-62.706
X93.186Y-62.706
X68.739Y-81.756
X78.899Y-81.756
X121.126Y-62.706
X131.286Y-62.706
X240.189Y-81.756
X250.349Y-81.756
X264.001Y-119.856
X274.161Y-119.856
X178.276Y-62.706
X188.436Y-62.706
X116.364Y-100.806
X126.524Y-100.806
X230.664Y-100.806
X240.824Y-100.806
X235.426Y-62.706
X245.586Y-62.706
X144.939Y-81.756
X155.099Y-81.756
X35.401Y-43.656
X45.561Y-43.656
X211.614Y-100.806
X221.774Y-100.806
X244.951Y-43.656
X255.111Y-43.656
X271.145Y-81.756
X281.305Y-81.756
X130.651Y-43.656
X140.811Y-43.656
X173.514Y-100.806
X183.674Y-100.806
X111.601Y-43.656
X121.761Y-43.656
X28.258Y-100.806
X38.417Y-100.806
X149.701Y-43.656
X159.861Y-43.656
X256.858Y-100.806
X267.017Y-100.806
X73.501Y-43.656
X83.661Y-43.656
T7
X92.875Y-126.841
X192.875Y-126.841
X266.7Y-36.671
X290.512Y-36.671
X264.319Y-74.771
X288.131Y-74.771
X21.431Y-93.821
X45.244Y-93.821
T8
X211.931Y-43.656
X71.438Y-119.856
X145.256Y-62.706
X307.181Y-81.756
X69.056Y-62.706
X197.644Y-100.806
X192.881Y-43.656
X83.344Y-100.806
X266.7Y-51.911
X278.606Y-43.656
X290.512Y-51.911
X269.081Y-43.656
X202.406Y-62.706
X83.344Y-19.844
X23.812Y-81.756
X207.169Y-19.844
X54.769Y-81.756
X159.544Y-100.806
X226.219Y-19.844
X250.031Y-119.856
X102.394Y-19.844
X88.106Y-62.706
X73.819Y-81.756
X126.206Y-62.706
X245.269Y-81.756
X269.081Y-119.856
X183.356Y-62.706
X121.444Y-100.806
X235.744Y-100.806
X240.506Y-62.706
X150.019Y-81.756
X40.481Y-43.656
X216.694Y-100.806
X250.031Y-43.656
X264.319Y-90.011
X276.225Y-81.756
X288.131Y-90.011
X135.731Y-43.656
X178.594Y-100.806
X116.681Y-43.656
X21.431Y-109.061
X33.337Y-100.806
X45.244Y-109.061
X154.781Y-43.656
X261.938Y-100.806
X78.581Y-43.656
X21.431Y-43.656
X307.181Y-119.856
X183.356Y-19.844
X107.156Y-62.706
X216.694Y-119.856
X145.256Y-19.844
X230.981Y-119.856
X45.244Y-19.844
X26.194Y-62.706
X102.394Y-100.806
X288.131Y-119.856
X28.575Y-81.756
X207.169Y-81.756
X23.812Y-119.856
X164.306Y-62.706
X288.131Y-43.656
X307.181Y-62.706
X211.931Y-119.856
X259.556Y-62.706
X130.969Y-81.756
X245.269Y-19.844
X307.181Y-100.806
X230.981Y-43.656
X111.919Y-81.756
X283.369Y-62.706
X245.269Y-119.856
X221.456Y-62.706
X92.869Y-81.756
X173.831Y-43.656
X140.494Y-100.806
X264.319Y-19.844
X288.131Y-100.806
X164.306Y-19.844
X64.294Y-19.844
X126.206Y-19.844
X307.181Y-43.656
X226.219Y-81.756
X21.431Y-19.844
X97.631Y-43.656
X64.294Y-100.806
X92.875Y-111.601
X142.875Y-119.856
X192.875Y-111.601
X59.531Y-43.656
X188.119Y-81.756
X47.625Y-119.856
X50.006Y-62.706
X169.069Y-81.756
T2
G00X29.086Y-6.856
M15
G01X29.086Y-7.456
M16
G05
G00X29.086Y-10.786
M15
G01X29.086Y-11.886
M16
G05
G00X37.726Y-6.856
M15
G01X37.726Y-7.456
M16
G05
G00X37.726Y-10.786
M15
G01X37.726Y-11.886
M16
G05
T0
M30
