G04 #@! TF.GenerationSoftware,KiCad,Pcbnew,(5.1.4)-1*
G04 #@! TF.CreationDate,2021-01-05T22:26:20-08:00*
G04 #@! TF.ProjectId,Seck_C_75,5365636b-5f43-45f3-9735-2e6b69636164,rev?*
G04 #@! TF.SameCoordinates,Original*
G04 #@! TF.FileFunction,Legend,Top*
G04 #@! TF.FilePolarity,Positive*
%FSLAX46Y46*%
G04 Gerber Fmt 4.6, Leading zero omitted, Abs format (unit mm)*
G04 Created by KiCad (PCBNEW (5.1.4)-1) date 2021-01-05 22:26:20*
%MOMM*%
%LPD*%
G04 APERTURE LIST*
%ADD10C,0.150000*%
G04 APERTURE END LIST*
D10*
X281679845Y-23153750D02*
X281584607Y-23106130D01*
X281441750Y-23106130D01*
X281298892Y-23153750D01*
X281203654Y-23248988D01*
X281156035Y-23344226D01*
X281108416Y-23534702D01*
X281108416Y-23677559D01*
X281156035Y-23868035D01*
X281203654Y-23963273D01*
X281298892Y-24058511D01*
X281441750Y-24106130D01*
X281536988Y-24106130D01*
X281679845Y-24058511D01*
X281727464Y-24010892D01*
X281727464Y-23677559D01*
X281536988Y-23677559D01*
X282156035Y-24106130D02*
X282156035Y-23106130D01*
X282727464Y-24106130D01*
X282727464Y-23106130D01*
X283203654Y-24106130D02*
X283203654Y-23106130D01*
X283441750Y-23106130D01*
X283584607Y-23153750D01*
X283679845Y-23248988D01*
X283727464Y-23344226D01*
X283775083Y-23534702D01*
X283775083Y-23677559D01*
X283727464Y-23868035D01*
X283679845Y-23963273D01*
X283584607Y-24058511D01*
X283441750Y-24106130D01*
X283203654Y-24106130D01*
X281108416Y-20566130D02*
X281441750Y-21566130D01*
X281775083Y-20566130D01*
X282679845Y-21470892D02*
X282632226Y-21518511D01*
X282489369Y-21566130D01*
X282394130Y-21566130D01*
X282251273Y-21518511D01*
X282156035Y-21423273D01*
X282108416Y-21328035D01*
X282060797Y-21137559D01*
X282060797Y-20994702D01*
X282108416Y-20804226D01*
X282156035Y-20708988D01*
X282251273Y-20613750D01*
X282394130Y-20566130D01*
X282489369Y-20566130D01*
X282632226Y-20613750D01*
X282679845Y-20661369D01*
X283679845Y-21470892D02*
X283632226Y-21518511D01*
X283489369Y-21566130D01*
X283394130Y-21566130D01*
X283251273Y-21518511D01*
X283156035Y-21423273D01*
X283108416Y-21328035D01*
X283060797Y-21137559D01*
X283060797Y-20994702D01*
X283108416Y-20804226D01*
X283156035Y-20708988D01*
X283251273Y-20613750D01*
X283394130Y-20566130D01*
X283489369Y-20566130D01*
X283632226Y-20613750D01*
X283679845Y-20661369D01*
X281251273Y-18978511D02*
X281394130Y-19026130D01*
X281632226Y-19026130D01*
X281727464Y-18978511D01*
X281775083Y-18930892D01*
X281822702Y-18835654D01*
X281822702Y-18740416D01*
X281775083Y-18645178D01*
X281727464Y-18597559D01*
X281632226Y-18549940D01*
X281441750Y-18502321D01*
X281346511Y-18454702D01*
X281298892Y-18407083D01*
X281251273Y-18311845D01*
X281251273Y-18216607D01*
X281298892Y-18121369D01*
X281346511Y-18073750D01*
X281441750Y-18026130D01*
X281679845Y-18026130D01*
X281822702Y-18073750D01*
X282822702Y-18930892D02*
X282775083Y-18978511D01*
X282632226Y-19026130D01*
X282536988Y-19026130D01*
X282394130Y-18978511D01*
X282298892Y-18883273D01*
X282251273Y-18788035D01*
X282203654Y-18597559D01*
X282203654Y-18454702D01*
X282251273Y-18264226D01*
X282298892Y-18168988D01*
X282394130Y-18073750D01*
X282536988Y-18026130D01*
X282632226Y-18026130D01*
X282775083Y-18073750D01*
X282822702Y-18121369D01*
X283727464Y-19026130D02*
X283251273Y-19026130D01*
X283251273Y-18026130D01*
X281227464Y-16438511D02*
X281370321Y-16486130D01*
X281608416Y-16486130D01*
X281703654Y-16438511D01*
X281751273Y-16390892D01*
X281798892Y-16295654D01*
X281798892Y-16200416D01*
X281751273Y-16105178D01*
X281703654Y-16057559D01*
X281608416Y-16009940D01*
X281417940Y-15962321D01*
X281322702Y-15914702D01*
X281275083Y-15867083D01*
X281227464Y-15771845D01*
X281227464Y-15676607D01*
X281275083Y-15581369D01*
X281322702Y-15533750D01*
X281417940Y-15486130D01*
X281656035Y-15486130D01*
X281798892Y-15533750D01*
X282227464Y-16486130D02*
X282227464Y-15486130D01*
X282465559Y-15486130D01*
X282608416Y-15533750D01*
X282703654Y-15628988D01*
X282751273Y-15724226D01*
X282798892Y-15914702D01*
X282798892Y-16057559D01*
X282751273Y-16248035D01*
X282703654Y-16343273D01*
X282608416Y-16438511D01*
X282465559Y-16486130D01*
X282227464Y-16486130D01*
X283179845Y-16200416D02*
X283656035Y-16200416D01*
X283084607Y-16486130D02*
X283417940Y-15486130D01*
X283751273Y-16486130D01*
M02*
